<?xml version="1.0" standalone="no"?>
<!DOCTYPE svg PUBLIC "-//W3C//DTD SVG 20010904//EN"
 "http://www.w3.org/TR/2001/REC-SVG-20010904/DTD/svg10.dtd">
<svg version="1.0" xmlns="http://www.w3.org/2000/svg"
 width="301.000000pt" height="301.000000pt" viewBox="0 0 301.000000 301.000000"
 preserveAspectRatio="xMidYMid meet">
<metadata>
Created by potrace 1.11, written by Peter Selinger 2001-2013
</metadata>
<g transform="translate(0.000000,301.000000) scale(0.100000,-0.100000)"
fill="#000000" stroke="none">
<path d="M1431 2983 c-44 -27 -44 -27 -91 -10 -67 24 -85 22 -138 -19 -32 -24
-53 -33 -67 -29 -11 3 -39 8 -62 11 -39 6 -44 4 -86 -40 -45 -46 -46 -46 -108
-45 -52 1 -65 -2 -78 -19 -74 -96 -70 -92 -115 -92 -53 0 -78 -19 -109 -80
-20 -40 -28 -47 -82 -65 -60 -20 -60 -21 -80 -80 -18 -54 -25 -62 -65 -82 -61
-31 -80 -56 -80 -109 0 -45 4 -40 -93 -115 -18 -14 -21 -26 -19 -78 3 -62 2
-62 -44 -107 -44 -43 -46 -48 -40 -87 3 -23 8 -51 12 -63 4 -14 -5 -35 -30
-67 -41 -53 -43 -70 -19 -137 17 -47 17 -47 -10 -93 -34 -57 -34 -77 0 -134
27 -46 27 -46 10 -93 -24 -67 -22 -84 19 -137 25 -32 34 -53 30 -67 -4 -12 -9
-40 -12 -63 -6 -39 -4 -44 40 -87 46 -45 47 -45 44 -107 -2 -52 1 -64 19 -78
97 -75 93 -70 93 -115 0 -53 19 -78 80 -109 40 -20 47 -28 65 -82 20 -59 20
-60 80 -80 54 -18 62 -25 82 -65 31 -61 56 -80 109 -80 45 0 40 4 115 -93 14
-18 26 -21 78 -19 62 3 62 2 107 -44 43 -44 48 -46 87 -40 23 3 51 8 63 12 14
4 35 -5 67 -30 53 -41 70 -43 137 -19 47 17 47 17 93 -10 57 -34 73 -34 132 0
48 26 49 26 95 10 67 -24 84 -22 137 19 32 25 53 34 67 30 12 -4 40 -9 63 -12
39 -6 44 -4 87 41 41 42 50 46 88 45 82 -3 87 -2 114 43 35 57 50 67 99 67 52
0 70 13 103 75 24 45 33 52 87 70 57 19 61 23 73 65 19 66 24 73 77 102 62 33
75 52 75 103 0 49 10 64 68 99 l42 26 0 66 c0 65 1 66 45 110 48 46 53 67 34
123 -13 38 0 77 37 112 28 26 30 54 8 118 -17 45 -17 47 10 98 32 65 32 73 0
125 -25 39 -26 45 -15 83 27 86 25 99 -14 151 -28 36 -35 54 -31 73 22 93 21
97 -28 144 -45 45 -46 46 -46 111 l0 66 -42 26 c-58 35 -68 50 -68 99 0 51
-13 70 -75 103 -53 29 -58 36 -77 102 -12 42 -16 46 -73 65 -54 18 -63 25 -87
70 -33 62 -51 75 -103 75 -49 0 -64 10 -99 68 -27 44 -32 45 -114 42 -38 -1
-47 3 -88 45 -43 45 -48 47 -87 41 -23 -3 -51 -8 -63 -12 -14 -4 -35 5 -67 30
-53 41 -70 43 -137 19 -47 -17 -47 -17 -93 10 -57 33 -80 33 -136 0z m156
-365 c44 -75 90 -165 102 -200 13 -35 26 -71 29 -80 6 -15 18 -9 80 38 41 31
75 54 77 52 2 -2 10 -45 16 -96 8 -58 17 -91 23 -88 184 75 447 158 460 145
10 -10 -80 -313 -113 -382 -22 -47 -33 -80 -27 -82 6 -2 53 -9 104 -17 l93
-13 -60 -81 -60 -81 42 -13 c71 -21 164 -66 288 -141 66 -40 118 -73 117 -74
-2 -2 -49 -30 -105 -64 -137 -81 -206 -115 -278 -137 -33 -10 -62 -19 -64 -21
-2 -1 22 -36 53 -77 31 -42 56 -77 56 -79 0 -2 -45 -10 -100 -17 -56 -7 -100
-15 -98 -19 2 -3 17 -33 34 -66 17 -33 41 -89 52 -125 19 -57 72 -260 72 -274
0 -7 -252 61 -327 89 -37 14 -83 35 -101 45 -18 11 -34 20 -36 20 -1 0 -9 -45
-16 -100 -7 -55 -17 -100 -22 -100 -5 0 -37 21 -71 47 -34 25 -67 50 -74 55
-8 6 -16 -7 -28 -44 -23 -69 -80 -183 -151 -300 -31 -51 -57 -94 -58 -95 -1
-2 -35 53 -75 122 -74 127 -141 267 -141 297 0 32 -18 27 -91 -28 l-74 -55
-12 73 c-6 40 -12 85 -12 101 -1 32 -4 33 -46 7 -50 -31 -158 -69 -299 -106
-72 -18 -131 -32 -133 -31 -5 5 66 264 87 319 12 29 32 72 46 95 13 23 24 44
24 46 0 3 -41 11 -90 18 -50 7 -95 16 -101 20 -7 4 9 33 45 81 31 41 56 78 56
81 0 4 -8 7 -17 7 -35 1 -180 68 -306 143 l-129 75 59 38 c32 21 99 59 148 85
79 42 118 59 223 100 22 9 22 10 -32 81 -36 48 -51 75 -43 79 7 3 50 11 96 18
46 6 86 12 88 14 1 2 -11 28 -27 59 -16 30 -37 75 -46 99 -22 62 -84 302 -79
307 6 6 238 -56 310 -83 34 -12 81 -33 104 -45 24 -12 45 -20 47 -18 1 2 9 46
15 98 7 52 14 97 15 99 2 2 37 -22 79 -53 71 -54 95 -62 95 -32 0 49 204 427
220 409 4 -4 44 -70 87 -145z"/>
<path d="M1437 2513 c-25 -49 -57 -123 -71 -167 l-26 -78 30 -38 c54 -68 55
-68 91 -10 l32 52 27 -47 c42 -71 43 -72 85 -21 34 42 37 50 31 88 -13 81
-120 308 -145 308 -4 0 -28 -39 -54 -87z"/>
<path d="M1166 2267 c-10 -37 -7 -209 5 -250 8 -30 24 -47 81 -87 40 -28 75
-47 78 -43 4 5 17 48 29 96 l22 89 -20 32 c-21 33 -114 128 -162 165 l-27 21
-6 -23z"/>
<path d="M730 2265 c0 -27 49 -162 81 -225 55 -106 61 -113 121 -121 29 -3 54
-5 56 -4 2 2 -4 29 -12 61 -8 32 -14 60 -12 62 2 2 29 -3 61 -12 l56 -14 -7
56 c-3 31 -13 65 -21 74 -40 45 -323 153 -323 123z"/>
<path d="M1735 2209 c-36 -35 -78 -82 -94 -106 l-29 -43 20 -87 c10 -48 20
-89 22 -90 1 -2 34 19 72 45 61 41 70 52 81 92 14 56 17 237 3 245 -6 4 -40
-22 -75 -56z"/>
<path d="M2134 2241 c-81 -28 -207 -92 -219 -112 -4 -5 -9 -34 -12 -63 l-6
-54 59 14 c32 7 60 12 62 10 2 -2 -1 -21 -7 -43 -19 -66 -17 -68 41 -65 29 2
61 11 70 19 26 24 95 170 117 251 l20 72 -22 0 c-12 0 -59 -13 -103 -29z"/>
<path d="M1467 2052 c-26 -64 -36 -115 -37 -182 -1 -36 -4 -95 -7 -132 l-6
-68 -99 95 c-67 64 -120 105 -164 126 -35 18 -66 30 -69 27 -2 -2 9 -32 24
-65 19 -40 63 -98 124 -165 l95 -103 -66 -2 c-126 -5 -254 -23 -303 -44 -27
-12 -49 -25 -49 -29 0 -11 87 -47 134 -56 21 -4 95 -10 163 -13 l123 -6 -94
-103 c-85 -91 -166 -215 -151 -230 2 -3 34 10 71 28 46 22 96 61 165 127 85
82 99 92 100 72 3 -158 12 -253 29 -309 27 -88 36 -101 55 -75 31 40 47 120
52 258 3 75 8 137 10 137 2 0 49 -41 104 -91 96 -87 219 -163 227 -139 8 24
-69 139 -150 225 -48 51 -88 95 -88 97 0 3 60 8 134 11 145 7 271 38 271 67 0
29 -123 60 -269 67 -75 3 -136 8 -136 11 0 2 40 46 88 97 81 86 158 201 150
225 -8 24 -128 -51 -228 -143 l-105 -96 -6 137 c-6 135 -17 200 -45 255 -19
36 -29 34 -47 -11z"/>
<path d="M2022 1839 c-56 -11 -55 -10 -112 -94 l-50 -74 38 -11 c20 -5 64 -15
98 -22 60 -11 62 -10 105 19 48 33 139 126 157 159 11 20 8 22 -50 28 -76 8
-130 6 -186 -5z"/>
<path d="M745 1831 c-18 -7 -13 -15 45 -76 36 -37 85 -81 108 -97 l44 -30 89
18 c49 10 89 21 89 24 0 3 -21 38 -48 76 -45 66 -49 69 -102 81 -63 13 -195
15 -225 4z"/>
<path d="M640 1634 c-68 -23 -240 -112 -240 -124 0 -16 206 -116 278 -135 l63
-16 51 42 50 42 -51 31 c-28 17 -51 33 -51 36 0 3 25 20 55 38 l55 33 -27 23
c-47 38 -77 56 -93 56 -8 0 -49 -12 -90 -26z"/>
<path d="M2196 1617 l-50 -44 52 -29 c29 -16 52 -31 52 -34 0 -3 -22 -18 -50
-33 -27 -15 -51 -31 -54 -36 -3 -4 17 -25 45 -45 48 -38 50 -38 95 -27 25 7
68 20 96 31 56 21 198 100 198 110 0 11 -143 88 -210 113 -115 43 -119 43
-174 -6z"/>
<path d="M872 1355 c-75 -54 -164 -157 -150 -171 3 -2 60 -5 127 -5 138 0 164
8 197 61 13 19 35 50 50 68 14 18 23 36 20 40 -4 4 -48 17 -97 28 l-90 21 -57
-42z"/>
<path d="M1945 1372 c-44 -8 -82 -17 -83 -18 -2 -1 19 -36 47 -77 48 -71 53
-76 101 -86 56 -12 205 -14 233 -3 15 6 10 15 -33 64 -45 50 -162 140 -179
137 -3 -1 -42 -8 -86 -17z"/>
<path d="M1261 1095 c-36 -25 -69 -51 -73 -59 -28 -50 -33 -286 -7 -286 16 0
155 144 174 180 16 30 16 37 -1 121 -10 49 -21 89 -24 88 -3 0 -34 -20 -69
-44z"/>
<path d="M1647 1123 c-3 -10 -13 -53 -23 -95 -15 -68 -16 -81 -3 -105 19 -35
167 -183 183 -183 25 0 33 131 15 237 l-11 63 -72 48 c-89 59 -83 57 -89 35z"/>
<path d="M1990 1098 c0 -2 7 -28 15 -58 8 -30 13 -55 12 -57 -2 -1 -26 4 -55
11 -29 8 -52 11 -53 8 -2 -17 3 -89 7 -104 8 -26 118 -84 235 -123 56 -19 104
-33 106 -31 7 7 -51 174 -84 240 -49 97 -70 116 -133 116 -27 0 -50 -1 -50 -2z"/>
<path d="M866 1074 c-42 -41 -110 -195 -131 -291 -6 -28 -4 -33 12 -33 50 0
271 93 312 131 15 14 38 116 28 126 -2 1 -29 -5 -61 -13 -32 -8 -60 -13 -62
-11 -3 2 -1 15 4 28 5 13 12 36 16 52 6 27 6 27 -48 27 -36 0 -60 -5 -70 -16z"/>
<path d="M1376 813 c-20 -25 -36 -51 -36 -56 0 -5 14 -50 30 -101 34 -100 108
-238 124 -233 19 6 104 179 127 258 l22 77 -38 46 c-20 25 -41 46 -45 46 -5 0
-20 -20 -34 -45 -15 -25 -30 -45 -34 -45 -4 0 -20 23 -37 50 -16 28 -32 50
-36 50 -3 0 -23 -21 -43 -47z"/>
</g>
</svg>
