<?xml version="1.0" encoding="UTF-8" standalone="no"?>
<svg
   xmlns:dc="http://purl.org/dc/elements/1.1/"
   xmlns:cc="http://creativecommons.org/ns#"
   xmlns:rdf="http://www.w3.org/1999/02/22-rdf-syntax-ns#"
   xmlns:svg="http://www.w3.org/2000/svg"
   xmlns="http://www.w3.org/2000/svg"
   xmlns:sodipodi="http://sodipodi.sourceforge.net/DTD/sodipodi-0.dtd"
   xmlns:inkscape="http://www.inkscape.org/namespaces/inkscape"
   width="286.92831"
   height="287.02249"
   viewBox="0 0 286.92832 287.02249"
   version="1.1"
   id="svg3818"
   sodipodi:docname="contour.svg"
   inkscape:version="0.92.2 (5c3e80d, 2017-08-06)">
  <metadata
     id="metadata3822">
    <rdf:RDF>
      <cc:Work
         rdf:about="">
        <dc:format>image/svg+xml</dc:format>
        <dc:type
           rdf:resource="http://purl.org/dc/dcmitype/StillImage" />
        <dc:title></dc:title>
      </cc:Work>
    </rdf:RDF>
  </metadata>
  <sodipodi:namedview
     pagecolor="#ffffff"
     bordercolor="#666666"
     borderopacity="1"
     objecttolerance="10"
     gridtolerance="10"
     guidetolerance="10"
     inkscape:pageopacity="0"
     inkscape:pageshadow="2"
     inkscape:window-width="2560"
     inkscape:window-height="1377"
     id="namedview3820"
     showgrid="false"
     inkscape:zoom="2.1300567"
     inkscape:cx="283.69753"
     inkscape:cy="237.61527"
     inkscape:window-x="-8"
     inkscape:window-y="-8"
     inkscape:window-maximized="1"
     inkscape:current-layer="svg3818"
     fit-margin-top="0"
     fit-margin-left="0"
     fit-margin-right="0"
     fit-margin-bottom="0" />
  <defs
     id="defs3815">
    <style
       id="style3813">
      .cls-1 {
        fill-rule: evenodd;
      }
    </style>
  </defs>
  <path
     style="color:#000000;font-style:normal;font-variant:normal;font-weight:normal;font-stretch:normal;font-size:medium;line-height:normal;font-family:sans-serif;font-variant-ligatures:normal;font-variant-position:normal;font-variant-caps:normal;font-variant-numeric:normal;font-variant-alternates:normal;font-feature-settings:normal;text-indent:0;text-align:start;text-decoration:none;text-decoration-line:none;text-decoration-style:solid;text-decoration-color:#000000;letter-spacing:normal;word-spacing:normal;text-transform:none;writing-mode:lr-tb;direction:ltr;text-orientation:mixed;dominant-baseline:auto;baseline-shift:baseline;text-anchor:start;white-space:normal;shape-padding:0;clip-rule:nonzero;display:inline;overflow:visible;visibility:visible;opacity:1;isolation:auto;mix-blend-mode:normal;color-interpolation:sRGB;color-interpolation-filters:linearRGB;solid-color:#000000;solid-opacity:1;vector-effect:none;fill:#000000;fill-opacity:1;fill-rule:evenodd;stroke:none;stroke-width:3;stroke-linecap:butt;stroke-linejoin:miter;stroke-miterlimit:4;stroke-dasharray:none;stroke-dashoffset:0;stroke-opacity:1;color-rendering:auto;image-rendering:auto;shape-rendering:auto;text-rendering:auto;enable-background:accumulate"
     d="m 143.46677,0.001 c -2.4574,0 -4.4481,1.3653 -6.25,2.5391 -1.8011,1.1733 -3.44368,2.17 -4.66989,2.2656 -1.2655,0.0965 -3.05134,-0.6364 -5.00781,-1.5156 -1.95647,-0.8793 -4.11346,-1.9218 -6.52149,-1.5391 -2.42452,0.381 -4.17586,2.035 -5.76953,3.4727 -1.59373,1.4377 -3.06018,2.6786 -4.26172,2.9687 -1.23491,0.2963 -3.11009,-0.1442 -5.17968,-0.7051 -2.0696,-0.5608 -4.36479,-1.254 -6.6875,-0.5039 l -0.002,0.002 h -0.0019 c -2.32879,0.7605 -3.79242,2.6699 -5.14063,4.3418 -1.34821,1.6719 -2.60513,3.1316 -3.7539,3.6094 -1.16109,0.4832 -3.08279,0.3429 -5.2168,0.1152 -2.134,-0.2277 -4.51312,-0.5475 -6.68945,0.5645 -2.18121,1.1149 -3.32101,3.2304 -4.38672,5.0917 -1.06572,1.8614 -2.07508,3.498 -3.14649,4.1563 -1.0697,0.6572 -2.9896,0.8156 -5.13476,0.9238 -2.14516,0.1083 -4.54882,0.167 -6.52539,1.6133 -1.97264,1.4434 -2.76806,3.7094 -3.53125,5.7149 -0.7632,2.0054 -1.50627,3.7806 -2.45899,4.5957 -0.9516,0.8141 -2.82165,1.2711 -4.92187,1.7128 -2.10022,0.4418 -4.46353,0.8756 -6.19336,2.6075 -1.72808,1.7301 -2.16232,4.0901 -2.60547,6.1894 -0.44315,2.0994 -0.90215,3.9704 -1.7168,4.9278 -0.81132,0.9534 -2.58693,1.6972 -4.59375,2.4609 -2.00681,0.7637 -4.27613,1.5583 -5.71484,3.5391 -1.43724,1.9787 -1.49564,4.379 -1.60547,6.5214 -0.10982,2.1425 -0.27062,4.06 -0.93164,5.1348 v 0.002 c -0.65136,1.0611 -2.29015,2.0739 -4.15234,3.1425 -1.8622,1.0687 -3.97806,2.2098 -5.08789,4.3907 -1.10841,2.178 -0.79424,4.5572 -0.56836,6.6914 0.22568,2.1323 0.36753,4.053 -0.11328,5.2246 -0.47844,1.1455 -1.936,2.4022 -3.60547,3.75 -1.67049,1.3486 -3.57722,2.8116 -4.33399,5.1406 v 0.002 H 6.98438 c -0.75084,2.3221 -0.06273,4.6194 0.49609,6.6914 0.55882,2.072 0.99993,3.9499 0.70703,5.1836 -0.29181,1.2067 -1.53096,2.6729 -2.96679,4.2656 -1.43722,1.5942 -3.09181,3.3426 -3.47656,5.7656 v 0.002 c -0.38052,2.4092 0.66241,4.5675 1.54101,6.5253 0.8786,1.9579 1.61098,3.7434 1.51172,5.0118 -0.09654,1.2305 -1.09234,2.872 -2.26367,4.6718 C 1.36187,139.0665 0,141.0569 0,143.5127 c 0,2.4559 1.36205,4.4434 2.53321,6.2442 1.17115,1.8008 2.16689,3.4446 2.26367,4.6816 0.09901,1.2618 -0.63158,3.0468 -1.50977,5.0039 -0.87818,1.9571 -1.92104,4.1158 -1.53711,6.5254 0.38213,2.4229 2.03434,4.1716 3.47071,5.7656 1.43535,1.5929 2.67498,3.0589 2.96679,4.2657 0.2929,1.2336 -0.14821,3.1116 -0.70703,5.1836 -0.55882,2.072 -1.24693,4.3693 -0.49609,6.6914 0.75523,2.3304 2.66533,3.7934 4.33594,5.1406 1.66959,1.3463 3.12647,2.5997 3.60547,3.75 0.48048,1.1635 0.33799,3.0862 0.11132,5.2207 -0.22666,2.1345 -0.5423,4.5139 0.57227,6.6894 1.11226,2.1808 3.22457,3.3263 5.08398,4.3946 1.86016,1.0687 3.49634,2.0787 4.1543,3.1484 0.65666,1.0676 0.81788,2.9865 0.92773,5.1309 0.10986,2.1443 0.16994,4.5465 1.61133,6.5254 1.44128,1.9787 3.70853,2.772 5.71289,3.5332 2.00436,0.7611 3.77573,1.5029 4.58789,2.457 0.81458,0.9569 1.2756,2.8347 1.72071,4.9375 0.44511,2.1028 0.8811,4.4645 2.60937,6.1914 1.72733,1.726 4.08602,2.1612 6.18555,2.6055 2.09953,0.4442 3.97197,0.9036 4.92383,1.7148 0.94933,0.8091 1.69081,2.5814 2.45312,4.586 0.76232,2.0045 1.55935,4.2721 3.53711,5.7148 1.97886,1.4435 4.38446,1.5071 6.53125,1.6191 2.1468,0.1121 4.06762,0.2746 5.12695,0.9258 1.05948,0.6513 2.07327,2.294 3.14258,4.1582 1.06932,1.8642 2.21239,3.981 4.39258,5.0918 2.17877,1.1101 4.5597,0.793 6.69531,0.5664 2.13562,-0.2265 4.05952,-0.3667 5.21094,0.1114 1.1517,0.4781 2.40599,1.9373 3.75391,3.6093 1.34792,1.672 2.81174,3.582 5.14453,4.3418 h 0.0019 0.002 c 2.31976,0.7505 4.61332,0.0618 6.68359,-0.498 2.06849,-0.5593 3.9444,-1.0003 5.17773,-0.709 1.20498,0.2895 2.67243,1.5303 4.26758,2.9687 1.59415,1.4376 3.34501,3.0917 5.76953,3.4727 2.40803,0.3828 4.56354,-0.6593 6.51953,-1.5371 1.956,-0.8778 3.74153,-1.6076 5.00586,-1.5078 h 0.002 c 1.22773,0.095 2.87194,1.0904 4.67384,2.2617 1.8018,1.1713 3.7919,2.5332 6.248,2.5332 2.4561,0 4.4431,-1.362 6.2403,-2.5332 1.7971,-1.1712 3.4365,-2.1666 4.666,-2.2617 h 0.002 c 1.2751,-0.1002 3.0592,0.6301 5.0157,1.5078 1.9564,0.8776 4.1123,1.9196 6.5214,1.5371 2.4203,-0.3811 4.1689,-2.0332 5.7637,-3.4707 1.5948,-1.4375 3.0633,-2.6804 4.2695,-2.9707 1.2266,-0.292 3.1025,0.1492 5.1719,0.709 2.0694,0.5598 4.3625,1.2488 6.6817,0.498 h 0.002 0.002 c 2.3326,-0.7598 3.798,-2.6697 5.1465,-4.3418 1.3476,-1.671 2.6018,-3.1284 3.7519,-3.6074 1.1633,-0.4796 3.0822,-0.3371 5.2149,-0.1094 2.1336,0.2279 4.5162,0.5441 6.6953,-0.5722 2.1773,-1.1154 3.3176,-3.2286 4.3847,-5.0899 1.0672,-1.8612 2.0769,-3.5 3.1465,-4.1582 1.0678,-0.6571 2.9882,-0.8182 5.1309,-0.9277 2.1421,-0.1094 4.5405,-0.1688 6.5156,-1.6074 1.9829,-1.4421 2.7803,-3.7108 3.543,-5.7168 0.7626,-2.006 1.5037,-3.7789 2.459,-4.5938 0.9563,-0.8158 2.8272,-1.2731 4.9277,-1.7148 2.1005,-0.4418 4.4646,-0.874 6.1914,-2.6074 1.7248,-1.7315 2.1579,-4.0951 2.5996,-6.1954 0.441,-2.097 0.8971,-3.9641 1.7051,-4.916 l 0.002,-0.002 c 0.8212,-0.9537 2.6003,-1.6981 4.6055,-2.4629 2.0064,-0.7653 4.2716,-1.5621 5.709,-3.541 1.4365,-1.9778 1.4986,-4.3782 1.6094,-6.5215 0.1106,-2.1416 0.2728,-4.0589 0.9277,-5.1348 0.6584,-1.0634 2.2939,-2.0739 4.1543,-3.1406 1.8621,-1.0677 3.9755,-2.2107 5.0898,-4.3926 1.1112,-2.1754 0.7949,-4.5552 0.5684,-6.6894 -0.2265,-2.1343 -0.3674,-4.0569 0.1133,-5.2207 0.4789,-1.1502 1.9363,-2.4043 3.6074,-3.752 1.6721,-1.3485 3.582,-2.8138 4.3418,-5.1465 v -0.002 l 0.002,-0.002 c 0.7501,-2.3237 0.0576,-4.6187 -0.5019,-6.6894 -0.5595,-2.0708 -0.9983,-3.9451 -0.6992,-5.1758 l 0.002,-0.006 0.002,-0.006 c 0.2815,-1.2007 1.5173,-2.6679 2.9551,-4.2618 1.4377,-1.5938 3.0965,-3.3427 3.4765,-5.7695 0.3755,-2.4072 -0.6666,-4.5631 -1.5429,-6.5195 -0.8764,-1.9565 -1.6038,-3.7409 -1.504,-5.0039 v -0.002 -0.002 c 0.0954,-1.2361 1.0907,-2.8791 2.2618,-4.6797 1.171,-1.8007 2.5332,-3.7881 2.5332,-6.2442 0,-2.4561 -1.362,-4.4464 -2.5332,-6.2461 -1.1713,-1.7996 -2.1666,-3.4403 -2.2618,-4.6699 v -0.002 c -0.1,-1.2697 0.6277,-3.0562 1.504,-5.0137 0.8762,-1.9575 1.9184,-4.1123 1.5429,-6.5195 v -0.002 c -0.38,-2.4268 -2.0388,-4.1757 -3.4765,-5.7695 -1.4378,-1.5938 -2.6736,-3.0591 -2.9551,-4.2598 l -0.002,-0.006 -0.002,-0.008 c -0.2991,-1.2306 0.1397,-3.1044 0.6992,-5.1738 0.5595,-2.0694 1.2531,-4.3631 0.5019,-6.6836 h -0.002 v -0.0019 c -0.7598,-2.3327 -2.6693,-3.7983 -4.3399,-5.1465 -1.6705,-1.3483 -3.1259,-2.6016 -3.5996,-3.75 v -0.0039 l -0.002,-0.002 c -0.484,-1.1637 -0.3443,-3.0851 -0.1192,-5.2187 0.2252,-2.1337 0.5409,-4.5121 -0.5703,-6.6875 -1.114,-2.1814 -3.2268,-3.3275 -5.0879,-4.3965 -1.8599,-1.0684 -3.496,-2.0779 -4.1484,-3.1348 -0.6595,-1.0751 -0.8229,-2.9972 -0.9336,-5.1406 -0.1107,-2.1434 -0.1686,-4.5404 -1.6015,-6.5156 v -0.002 c -1.4421,-1.9828 -3.7128,-2.7803 -5.7188,-3.5429 -2.006,-0.7627 -3.7789,-1.5018 -4.5938,-2.4571 -0.817,-0.9578 -1.2758,-2.8291 -1.7187,-4.9277 -0.4429,-2.0986 -0.8755,-4.4567 -2.5996,-6.1875 -1.7261,-1.7328 -4.0889,-2.169 -6.1895,-2.6133 -2.0993,-0.444 -3.97,-0.9031 -4.9277,-1.7187 l -0.002,-0.002 c -0.9444,-0.8093 -1.6877,-2.5821 -2.4512,-4.5859 -0.764,-2.0051 -1.5626,-4.2726 -3.5391,-5.7149 -1.9779,-1.4433 -4.3782,-1.5045 -6.5215,-1.6152 -2.1433,-0.1108 -4.0639,-0.2724 -5.1386,-0.9317 -1.0604,-0.6524 -2.0697,-2.2893 -3.1368,-4.1503 -1.067,-1.861 -2.2117,-3.976 -4.3945,-5.086 -2.1745,-1.1155 -4.552,-0.8006 -6.6836,-0.5742 -2.132,0.2264 -4.0529,0.3691 -5.2226,-0.1152 h -0.002 c -1.1504,-0.4786 -2.4052,-1.9373 -3.7519,-3.6075 -1.3472,-1.6707 -2.8099,-3.5793 -5.1407,-4.3339 -2.3221,-0.7546 -4.6193,-0.0673 -6.6875,0.4921 -2.0694,0.5599 -3.9422,1.001 -5.1738,0.7051 -1.2065,-0.2897 -2.6761,-1.5326 -4.2715,-2.9707 -1.5948,-1.4375 -3.3434,-3.0896 -5.7637,-3.4707 -2.4093,-0.3825 -4.5669,0.6599 -6.5253,1.5391 -1.9576,0.8788 -3.7444,1.6115 -5.0137,1.5156 -1.2281,-0.095 -2.8669,-1.0919 -4.6641,-2.2656 C 147.912,1.3653 145.9244,0 143.4669,0 Z m 0,3 c 1.2326,0 2.8312,0.8945 4.6016,2.0508 1.7703,1.1563 3.6804,2.5611 6.0723,2.7461 h 0.002 c 2.4106,0.1834 4.5386,-0.9032 6.4727,-1.7715 1.934,-0.8683 3.6455,-1.4999 4.8261,-1.3125 h 0.002 0.002 c 1.2084,0.1898 2.6487,1.3194 4.2208,2.7363 1.572,1.417 3.2465,3.0999 5.58,3.6602 2.3484,0.5641 4.6151,-0.1739 6.6582,-0.7266 2.0431,-0.5527 3.832,-0.9085 4.9785,-0.5351 h 0.002 c 1.1592,0.3753 2.4026,1.7165 3.7305,3.3633 1.3278,1.6467 2.7182,3.5721 4.9375,4.4941 v 0.0019 c 2.2303,0.925 4.5848,0.5517 6.6894,0.3282 2.1046,-0.2235 3.9256,-0.2923 5,0.2597 l 0.002,0.002 0.004,0.0019 c 1.0846,0.5507 2.1,2.069 3.1523,3.9043 1.0523,1.8354 2.123,3.9585 4.1719,5.2168 2.0553,1.2608 4.4366,1.2599 6.5508,1.3692 2.1142,0.1092 3.928,0.3263 4.9101,1.0429 0.9836,0.7178 1.7505,2.382 2.5039,4.3594 0.7535,1.9774 1.4799,4.2375 3.3047,5.7989 l 0.002,0.0019 c 1.8328,1.5635 4.1858,1.9348 6.2578,2.3731 2.072,0.4382 3.8297,0.9377 4.6836,1.7949 0.8559,0.8592 1.3519,2.618 1.7891,4.6894 0.4371,2.0714 0.8081,4.4218 2.371,6.2539 1.5652,1.8348 3.8316,2.5641 5.8106,3.3164 1.979,0.7524 3.6395,1.5168 4.3574,2.5039 0.7064,0.9751 0.924,2.7906 1.0332,4.9063 0.1093,2.1166 0.1126,4.4998 1.3731,6.5547 v 0.0019 c 1.2583,2.0424 3.377,3.1126 5.2109,4.1661 1.8339,1.0534 3.3542,2.0715 3.9102,3.1601 0.5488,1.0746 0.4801,2.9015 0.2578,5.0078 -0.2223,2.1058 -0.591,4.4579 0.334,6.6836 2e-4,6e-4 -3e-4,0.0013 0,0.002 0.917,2.2192 2.8404,3.6091 4.4863,4.9375 1.6459,1.3284 2.9899,2.5735 3.3711,3.7402 0.368,1.1396 0.0117,2.9299 -0.541,4.9746 -0.5528,2.0445 -1.2879,4.3142 -0.7188,6.6621 0.5507,2.3347 2.231,4.009 3.6465,5.5781 1.4173,1.5712 2.5483,3.0114 2.7383,4.2247 0.1837,1.1827 -0.4486,2.8959 -1.3145,4.83 -0.866,1.9345 -1.947,4.0632 -1.7578,6.4727 v 0.002 c 0.1855,2.3896 1.5848,4.3019 2.7383,6.0743 1.1538,1.7728 2.0469,3.3754 2.0469,4.6093 0,1.2339 -0.8949,2.8351 -2.0489,4.6094 -1.1536,1.7739 -2.551,3.689 -2.7363,6.082 -0.1902,2.4071 0.8917,4.5333 1.7578,6.4668 0.8662,1.9336 1.499,3.6474 1.3145,4.8301 -0.1907,1.2129 -1.3216,2.6521 -2.7383,4.2227 -1.4155,1.5691 -3.0958,3.2435 -3.6465,5.5781 -0.5691,2.3479 0.1661,4.6166 0.7188,6.6621 0.5527,2.0458 0.9101,3.838 0.541,4.9844 -0.3812,1.1667 -1.7242,2.412 -3.3711,3.7402 -1.648,1.329 -3.5742,2.7182 -4.4961,4.9375 l -0.002,0.002 v 0.002 c -0.9193,2.2262 -0.5457,4.5778 -0.3222,6.6836 0.2235,2.1058 0.291,3.9313 -0.2578,5.0059 -0.5557,1.0881 -2.0748,2.1039 -3.9102,3.1562 -1.8354,1.0524 -3.9559,2.1225 -5.2187,4.168 l -0.002,0.004 -0.002,0.004 c -1.2537,2.0547 -1.254,4.4327 -1.3632,6.5469 -0.1093,2.1142 -0.3276,3.9298 -1.0411,4.9121 -0.7126,0.9811 -2.3729,1.7472 -4.3515,2.5019 -1.9786,0.7547 -4.2431,1.487 -5.8125,3.3125 l -0.002,0.002 -0.002,0.002 c -1.5597,1.8295 -1.9275,4.1777 -2.3633,6.25 -0.4358,2.0722 -0.9319,3.8368 -1.7871,4.6953 -0.8532,0.8565 -2.6116,1.3533 -4.6836,1.789 -2.072,0.4358 -4.4242,0.803 -6.2578,2.3672 -1.8347,1.5651 -2.5641,3.8316 -3.3164,5.8106 -0.7524,1.979 -1.5148,3.6395 -2.502,4.3574 h -0.002 v 0.002 c -0.9746,0.7103 -2.7895,0.9272 -4.9043,1.0352 -2.1148,0.108 -4.4966,0.1062 -6.5489,1.3691 -2.0504,1.2618 -3.1249,3.3845 -4.1777,5.2207 -1.0528,1.8363 -2.0658,3.3575 -3.1484,3.9121 -1.0809,0.5538 -2.9059,0.4845 -5.0098,0.2598 -2.1039,-0.2247 -4.4528,-0.6013 -6.6797,0.3184 h -0.002 v 0.002 c -2.2193,0.922 -3.6105,2.8482 -4.9395,4.4961 -1.329,1.648 -2.5729,2.9909 -3.7402,3.3711 -1.1409,0.3685 -2.9305,0.0134 -4.9727,-0.539 -2.0431,-0.5527 -4.3069,-1.2904 -6.6504,-0.7325 h -0.002 -0.002 c -2.3335,0.5603 -4.008,2.2432 -5.58,3.6602 -1.5721,1.417 -3.0124,2.5466 -4.2208,2.7363 h -0.002 -0.002 c -1.1808,0.1875 -2.8887,-0.4432 -4.8222,-1.3105 -1.9335,-0.8674 -4.0636,-1.9515 -6.4785,-1.7618 v -0.002 c -2.3906,0.1849 -4.3,1.5865 -6.0704,2.7402 -1.7703,1.1538 -3.3696,2.0469 -4.6035,2.0469 -1.2339,0 -2.8384,-0.8951 -4.6133,-2.0488 -1.7748,-1.1538 -3.6888,-2.5533 -6.07808,-2.7383 l 0.002,0.002 c -2.40967,-0.1902 -4.53429,0.8945 -6.4668,1.7618 -1.93251,0.8672 -3.64429,1.4978 -4.82226,1.3105 h -0.002 -0.002 c -1.21711,-0.1904 -2.65766,-1.3198 -4.22852,-2.7363 -1.57085,-1.4166 -3.2412,-3.0997 -5.57421,-3.6602 h -0.002 -0.002 c -2.34671,-0.5572 -4.61397,0.1797 -6.6582,0.7325 -2.04239,0.5522 -3.83224,0.9069 -4.97461,0.539 -1.16722,-0.3802 -2.41166,-1.7231 -3.74024,-3.3711 -1.32858,-1.648 -2.7172,-3.5742 -4.9375,-4.4961 -2.22058,-0.9219 -4.57085,-0.5477 -6.67773,-0.3242 -2.10689,0.2235 -3.93835,0.2921 -5.01758,-0.2578 -1.07781,-0.5492 -2.09596,-2.0738 -3.15039,-3.9121 -1.05443,-1.8383 -2.12631,-3.9601 -4.17383,-5.2188 -2.04767,-1.2588 -4.42626,-1.2567 -6.54297,-1.3672 -2.1167,-0.1104 -3.93778,-0.3304 -4.91992,-1.0468 -0.98324,-0.7173 -1.74782,-2.3795 -2.5,-4.3575 -0.75218,-1.9779 -1.48084,-4.2417 -3.3125,-5.8027 -1.82914,-1.5588 -4.17682,-1.9289 -6.24805,-2.3672 -2.07122,-0.4382 -3.83283,-0.9389 -4.6875,-1.7929 -0.85372,-0.8531 -1.35382,-2.6148 -1.79297,-4.6895 -0.43914,-2.0747 -0.81066,-4.4286 -2.37109,-6.2617 -1.56283,-1.8359 -3.82825,-2.5651 -5.80664,-3.3164 -1.97839,-0.7513 -3.63879,-1.5129 -4.35352,-2.4942 -0.7146,-0.9811 -0.93262,-2.7984 -1.04101,-4.914 -0.10839,-2.1157 -0.1068,-4.4965 -1.36914,-6.5488 -1.26104,-2.0503 -3.38075,-3.124 -5.21485,-4.1778 -1.83409,-1.0537 -3.35215,-2.0687 -3.90625,-3.1562 l -0.002,-0.002 v -0.002 c -0.55043,-1.0745 -0.48335,-2.9004 -0.25976,-5.0059 0.22358,-2.1055 0.59919,-4.4551 -0.32032,-6.6816 l -0.002,-0.002 v -0.002 c -0.92191,-2.2192 -2.84749,-3.6097 -4.49414,-4.9375 -1.64665,-1.3279 -2.98751,-2.569 -3.36328,-3.7286 -0.37116,-1.1479 -0.01457,-2.9408 0.53711,-4.9863 0.55168,-2.0455 1.28757,-4.3118 0.73047,-6.6582 l -0.0015,-0.002 v -0.002 c -0.56074,-2.3326 -2.24099,-4.0056 -3.65625,-5.5762 -1.41525,-1.5706 -2.54489,-3.0104 -2.73633,-4.2265 v -0.002 -0.002 c -0.18806,-1.1804 0.44324,-2.8914 1.31055,-4.8243 0.86732,-1.9329 1.95266,-4.0585 1.76367,-6.4668 C 7.59989,151.811 6.20072,149.8962 5.04688,148.122 3.89303,146.3478 3,144.7468 3,143.5126 c 0,-1.2341 0.89322,-2.8367 2.04688,-4.6093 1.15366,-1.7727 2.55277,-3.6848 2.74023,-6.0743 0.18874,-2.4116 -0.89552,-4.54 -1.76367,-6.4746 -0.86815,-1.9346 -1.50289,-3.6474 -1.3164,-4.8281 0.19324,-1.217 1.32615,-2.6578 2.74218,-4.2285 1.41603,-1.5708 3.09551,-3.2436 3.65625,-5.5762 v -0.002 l 0.002,-0.002 c 0.5571,-2.3464 -0.17879,-4.6127 -0.73047,-6.6582 -0.55168,-2.0455 -0.90827,-3.8384 -0.53711,-4.9863 0.3782,-1.1604 1.72025,-2.4044 3.36523,-3.7324 1.64601,-1.3289 3.56972,-2.7177 4.49219,-4.9317 v -0.0039 l 0.002,-0.0019 c 0.91772,-2.2288 0.5471,-4.5817 0.32422,-6.6875 -0.22287,-2.1059 -0.29278,-3.9318 0.25781,-5.0137 0.54917,-1.0792 2.06995,-2.0966 3.90625,-3.1504 1.83557,-1.0534 3.95702,-2.1266 5.21485,-4.1738 l 0.0019,-0.002 c 1.26261,-2.0547 1.26271,-4.4364 1.37109,-6.5508 0.10843,-2.115 0.32435,-3.9308 1.03711,-4.9121 0.71129,-0.9792 2.37479,-1.7442 4.35547,-2.498 1.98069,-0.7538 4.24787,-1.4838 5.81055,-3.3203 1.55936,-1.8326 1.92813,-4.1833 2.36523,-6.2539 0.4371,-2.0707 0.93601,-3.8296 1.79493,-4.6895 0.85716,-0.8581 2.61742,-1.3552 4.68945,-1.791 2.07203,-0.4358 4.42351,-0.8032 6.25391,-2.3691 1.82928,-1.565 2.55919,-3.8291 3.3125,-5.8086 0.7533,-1.9795 1.51868,-3.6428 2.49804,-4.3594 0.97543,-0.7137 2.78821,-0.9323 4.9043,-1.0391 2.11609,-0.1067 4.4994,-0.1024 6.55469,-1.3652 2.05359,-1.2617 3.1284,-3.3846 4.17968,-5.2207 1.05129,-1.8362 2.06265,-3.3551 3.14844,-3.9102 1.07267,-0.548 2.89912,-0.4787 5.00586,-0.2539 2.10675,0.2248 4.46059,0.5987 6.6875,-0.3281 2.21723,-0.9222 3.60651,-2.848 4.93555,-4.4961 1.32821,-1.6471 2.57279,-2.9906 3.73437,-3.3711 1.14535,-0.369 2.93479,-0.0109 4.97852,0.543 2.04465,0.5541 4.31397,1.2923 6.66406,0.7285 2.33107,-0.5608 4.00218,-2.2438 5.57227,-3.6602 1.57008,-1.4164 3.00945,-2.5459 4.22656,-2.7363 h 0.002 0.002 c 1.17797,-0.1872 2.88828,0.4443 4.82031,1.3125 1.93203,0.8683 4.05634,1.955 6.46484,1.7715 h 0.002 c 2.39068,-0.1851 4.30518,-1.5879 6.08008,-2.7441 1.7749,-1.1563 3.3788,-2.0528 4.6113,-2.0528 z"
     id="pastille"
     inkscape:connector-curvature="0" />
</svg>
